/* XPM */
static char *tron[] = {
/* columns rows colors chars-per-pixel */
"64 64 77 1 ",
"  c #07152D",
". c #08152D",
"X c #031533",
"o c #021639",
"O c #071B3E",
"+ c #081C3F",
"@ c #031C47",
"# c #091E46",
"$ c #031C48",
"% c #041F52",
"& c #07214D",
"* c #09204B",
"= c #042154",
"- c #0B2455",
"; c #06245C",
": c #0B285D",
"> c #062661",
", c #072966",
"< c #072B6A",
"1 c #082D6E",
"2 c #133C6E",
"3 c #092E71",
"4 c #093075",
"5 c #0A347B",
"6 c #184372",
"7 c #15467F",
"8 c #29547E",
"9 c #0B3681",
"0 c #0C3A87",
"q c #1B4C84",
"w c #1C579E",
"e c #1A589F",
"r c #26588C",
"t c #345D83",
"y c #2E6090",
"u c #316192",
"i c #3B6B97",
"p c #1B57A0",
"a c #1C5AA1",
"s c #225FA4",
"d c #2260A5",
"f c #2361A8",
"g c #2A68AA",
"h c #3874AF",
"j c #286CB0",
"k c #2D72B3",
"l c #3775B2",
"z c #3874B3",
"x c #3B79B6",
"c c #387BB8",
"v c #446D8C",
"b c #4A718E",
"n c #43729D",
"m c #4E7CA2",
"M c #5683A5",
"N c #5985A7",
"B c #4283BD",
"V c #4A86BE",
"C c #4E89BF",
"Z c #4E89C0",
"A c #5491C4",
"S c #5B95C6",
"D c #5B96C8",
"F c #639CCB",
"G c #699FCA",
"H c #67A1CC",
"J c #6AA2CD",
"K c #71A7CE",
"L c #75AACF",
"P c #71A6D0",
"I c #77ABD2",
"U c #78ADD4",
"Y c #7FB1D3",
"T c #87B9D5",
"R c #8BBBDA",
"E c #96C1DD",
"W c #9CC5DD",
/* pixels */
" O+O+++OO-mr#OOOOO+OOOOOOOOOoO#un-#OOOOOo@o#oO@OOOO#qN>#OOOOOOOX",
"X$$$$$@$$,Sg;@$$$$@$$$$$$$$$$$;zZ>$$$$$$$$@@@#$$@@@%aH3$$$$$$$$X",
"X$$$$$$$$,Sg=$$@$$$$$$$$$$$$$$;lC>$$$$$$$$$$@$$$$$@%aH3$$$$$$$$o",
"X$$$$$$$$,Sg;$$$$$$$$$@$@$$$$$;lC>$$$$$$$$$$@$@$$@$%pH1$$$$$$$$o",
"X$$$$$$$@,Sg=$$$$$$$$$$$$$$$$$;hC>$$$$$$$$$$$$$$$@$%pJ1$$$$$$$$o",
"X$$$$$$$@,Sg=$$$$$$$$$$$$$@$$$;lC>$$$$$$$$$$$$$$$$$%pJ1$$$$$$$$o",
"X$$$$$$$$,Sg=$$$$$$$$$$$$$$$$$;lC>$$$$$$$$$$$$$$$$$%pH3$$$$$$$$o",
"X$$$$$$$$,Sg;$$$$$$$$$$$$$$$$$;lZ>$$$$$$$$$$$$$$@$$%pJ3$$$$$$$$o",
" @@&@@@&$,Sg=$$$$$$$$$$$$$$$$$;cZ>$$$$$$$$$$$$$$$$$=aH<@$$$$$$$o",
"&<,<<<,1<5Dg4<<<<<<<<<<<<<<1<<5kC51<33<<3<<<33<3<<<3aH9<<<<,,<,=",
"iFFFFFHDFFRPFFFFDHFFFDHFFDFFDFFUTFFFFFFFFFFFFFFFFFFFHEFFFFFFFFFm",
"6yddddddddGcddddddddddddfffsssfmDdsssssfssssssssdddfkPfdsssssddq",
"o========3Sg>======;=;===;==%%<zZ<%%%>%%%%%%;%%%=;%>aH4========@",
"o$$$$$$$$,Sg;$$$$$$$$$$$$$$$$%>zZ>$$$$$$$%$$$%$$$$$%aH<&$@&$@@@o",
"X$$$$$$$$<Sg;$$$$$$$$$$$$$$$$$%zZ>$$$$$$$$$$$$$$$$$%aH<&$$$$$$$o",
"X$$$$$$$$,Dg=$$$$$$$$$$$$$$$$$>zZ>$$$$$$$$$$$$$$$$$%aH1$$$$$@$$o",
"X$$$@$$$$<Sg;@$$$$$$$$$$$$$$$$;kZ>$$$$$$$$$$$$$$$$$%aH1$$$$$$$$o",
"X$$$$$$$$,Dg;@$@$$$$$$$$$$$$$$;lZ>$$$$$$$$$$$$$$$$$%aH1$$$$$$$$o",
"X$$$$$$$$<Sg=@$$$$$@$$$@$$$$$$;lZ>$$$$@$@$$$$$$$$$$=aH3$$$$$$$$o",
"X$$$@$$$$,Dg;@$$$$$$$$$$$$$$$$;zZ>$@$$$$$$$$$$$$$$$%aH3$$$$$$$$o",
"X@$$$$$$$<Sg;$$$$$@$$$$$$$$$$$;lZ>%$$$$$$$$@$$$$$$$%aH<$$$$$$$$o",
"X$$$$$$$$,Sg=$$$$$$$$$$$$$$$$%%lZ>$$$@@$@$$$$$$$$$$=aH1$$$$$$$$o",
"X$$$$@$$$<Sg;@$$$$$$$$@$$$$$$$;zZ>$$$$$$$$$$$$$$$$$%aH3$$@$$$$$o",
"X$$$$$$$$,Sg;$$$$$$$$$$$$$$$$$;zV>$$$@$$@$$@$$$$$$$%aH3$$$$$@$$o",
"X$$$$$$$$,Sg=$$$$$@$$$$$$$$$$%;zZ>$$$$$$$$$$$$$$$$$=aH<$$$$$$$$o",
"X$$$$$$@$<Sg;$$$$$$$$$$$$$$$$$;zZ>$$$$$$$$$$$$$$$@@=aH1@$$$$$$$o",
"X@$$$$$$$,Sg=$$$$$$$$$$$$$$$$$;lZ>%$$$$$$$$$$$$$$$$=aH1&$$$$$$$o",
"X$$$$$$$$,Dg;$$$$$$$@$$$$$$$$$%lZ>$$$$$$$$$$$$$$$$$=aH1$$$$$$$$o",
"X$@@@$$@$<Dg=&$@$$$$$$$$$$$$$$;lZ>@$$$$$$$$$$$$$$$$=aH1$$$@@$$$o",
"X$@@$$$@$<Dg=@$$$@$@@$$@$$$$$$;lZ>$@$$$$$$$$$$$$$$$%aH1$$$@@$$$o",
"@;;;;;;;;3Sg<;;;;;;;;;;;;;;;;;<lV3>>>>;;;;;;;>;;;;;,aH5=;;;;;:;@",
"8xxxcxxxccPZxxxxxxxxxxxxxxxxxxxSJzxxzxzzxxxxxxxxxxxxBYxcccxcxxxr",
"tVVVVVVCVBTSVVVZVVVVVZVZVVVVVVVFIVVVVmZZBZmVVVmZZBVBATBVVVVVZBVi",
"@>>>>:>>;4Sg<>>;,>;;>;>;>>>;>>1lZ4>>>>>,>><,>>>>,>>3aG9>:>;>>>,#",
"X@$$$$$$$,Dg;&@$&@$&@$@$@@$$$$;lZ>$$$$$$@$$@@@$$$@@%pH3$$$$$$$$o",
"X@$$$$$$$,Ag=@$$@@@$$$$$$$$$$$;lZ>$$$$$$$$$$$$$$$$$%aG<$$$$$$$$o",
"X@$$$@$$$,Sg=&@$@@@@$$$$$$$$$$%lZ>$$$$$$$$$$$$$$$$$%pH3$$$$$$$$o",
"X@$$$$$$$,Sg=$$$@@$$$$$$$$$$$$;lZ>$$$$$$$$$$$$$@$$$%aH<@$$$$$$$o",
"X$$$$$$$$,Sg;@$$$$$$@$$$$$@$$$;lZ>$$$$$$$$$$$$$$$@$%aJ3$$$$$$$$o",
"X$$$$$$$$,Sg=$$$$$$$$$$$$$$$$$;lZ>$$$$$$$@$$$$$$$$$%pH3$$$$$$$$o",
"X$$$@$$$$<Sg=@$$@$$$$$$$$$$$$$%lZ>@@$$$$$$$$$$$$$$$%aJ3$$$$$@$$o",
"X$$$$$$$@<Sg=@$@$$@$$$$$$$$$$$;lZ>@@@$$@$@@$$$$$$$$%aJ<$$$$$$$@o",
"X$$$@$$$$,Sg=@@@$$$$$$$$$$$$$@%lZ>$$$$$$$$$$@$$$$$$%aG<$$$$$$$$o",
"X$$$$$$$$>Sg;&@@$$$$$@$$$$$$$$;lZ>$$$@$@$@$$$$$$$$$%aJ3$$$$$$@$o",
"X$$$$$$$$,Sg=$$$$@$$$$$$$$$$$$;lZ>$$$$$$@$$$$$$$$$$%aG3$$$$$$$$o",
"X$$$$$$$$,Sg;$@$$$$$$$$$$$$$$$;lZ>$$$$$$$$$$$$$$$$$=aJ<$$$@$@$@o",
"X$$$$$$$$,Sg=$$$$$$$$$$$$$$$$$;lZ>$$$$$$$$$$$@$$$$$%aH1$@$@$@$$o",
"X$$$$$$$&>Sj=$$$$$$$$$$@$$$$$$;lZ>$$$$$$@$$@$$$$$$$%pF1$$$$$$$$o",
"X$$$$$$$$,Sg=$$$$@$$$$$$$@$$$$;zZ>$$$$@@$$$$$$$$$$$%aJ1@$$$$$$$o",
"X$$$$$$$$,Sg=$$$$$$$$$$$$$$$$$%zZ>$$$$@@$$$@$$$$$$$=eJ1@$$@@$$$o",
"o$$$$$$$$,Sg=@$$@$$$$@$@$@$$$$;lZ>$$$$@@$$@@$$@$$$$%wJ1@@@@@$$@o",
"o%$%%%%%=<Sg>=&=%%%%%%%%%%%%%%>xC<$======%%===&=%=%;aH4===%%%=$@",
"2wppppappaFzawwwwwwwwwwwwwpwwwpcAwwawwwwwwwwwwwweewwgKewpapppaa7",
"bJJJJJJJJHEIJJKPKKJPKJPKKJJKPKGTRJJJJJJKHJJJJJJJJHJJLWJJJJJJJJHM",
"&333333339Sg53<331133<11<331<35zZ5113311411113311114aH0<3333333-",
"X$$@$$$$$,Dg%$$$$$$$$$$$$$$$$$%zZ>@$@$@@@@@@$$@@@@@=aJ1&$$$$$$$o",
"X$$$$$$$$,Sg;$$$$$$$$$@$$$$$$$;zZ>$$$$$$$@$$$$$$$$$%aJ3$$$$$$$$o",
"X$$$$$$@$<Sg=$$$$$$$$@$$$$$$$$;zZ>@$$$$$$$$$$$$$$$$%aH3$$$$$$$$o",
"X@@$$$$$$,Sg=$@$$$@$$$$$$$$$$$=zZ,@$$$$@$$$$$$$$$$$%sG<$$$$$$$$o",
"X$$$$$$$$,Dg=$$$$$$$$$$$$$$$$$;zZ>$$$$$$$$$$$$@$$$$%aG3$$$$$$$$o",
"X@$$$$$$&>Dg;@@@$$$$$$$$$$$$$$;zZ>$$$$$$$$$$@$$$$$$%aH1$$$$$$$$o",
"X@$$$$$$@<Dg=&$$@@$$$$$$$$$$$$;zZ>$$$$$$$$$$$$$$$$$%aJ3$$$$$$$$o",
"X$$$@$$@@,Dg=$$$@@$$$$$$@@$$@@;xZ>$$$$@$$$$$$$$$$$$%aJ3$$$$@$$$o",
" ++++++++-mr&++++O#OOOOOOOOOO##un-+++++++++++++++++#qN:++++++++X"
};
